<?xml version="1.0" standalone="no"?><!DOCTYPE svg PUBLIC "-//W3C//DTD SVG 1.1//EN" "http://www.w3.org/Graphics/SVG/1.1/DTD/svg11.dtd"><svg xmlns:xlink="http://www.w3.org/1999/xlink" version="1.1" style="font-family:open sans;font-size:12px;" xmlns="http://www.w3.org/2000/svg" width="1040" height="410"><desc>Created with Highcharts 4.1.5</desc><defs><clipPath id="highcharts-65"><rect x="0" y="0" width="826" height="199"></rect></clipPath></defs><rect x="0" y="0" width="1040" height="410" strokeWidth="0" fill="#FFFFFF" class=" highcharts-background"></rect><g class="highcharts-grid" ></g><g class="highcharts-grid" ></g><g class="highcharts-grid" ><path fill="none" d="M 127 332.5 L 953 332.5" stroke="#D8D8D8" stroke-width="1"  opacity="1"></path><path fill="none" d="M 127 266.5 L 953 266.5" stroke="#D8D8D8" stroke-width="1"  opacity="1"></path><path fill="none" d="M 127 199.5 L 953 199.5" stroke="#D8D8D8" stroke-width="1"  opacity="1"></path><path fill="none" d="M 127 132.5 L 953 132.5" stroke="#D8D8D8" stroke-width="1"  opacity="1"></path></g><g class="highcharts-grid" ><path fill="none" d="M 127 332.5 L 953 332.5" stroke="#D8D8D8" stroke-width="1"  opacity="1"></path><path fill="none" d="M 127 266.5 L 953 266.5" stroke="#D8D8D8" stroke-width="1"  opacity="1"></path><path fill="none" d="M 127 199.5 L 953 199.5" stroke="#D8D8D8" stroke-width="1"  opacity="1"></path><path fill="none" d="M 127 132.5 L 953 132.5" stroke="#D8D8D8" stroke-width="1"  opacity="1"></path></g><g class="highcharts-axis" ><path fill="none" d="M 201.5 332 L 201.5 342" stroke="#C0D0E0" stroke-width="1" opacity="1"></path><path fill="none" d="M 276.5 332 L 276.5 342" stroke="#C0D0E0" stroke-width="1" opacity="1"></path><path fill="none" d="M 351.5 332 L 351.5 342" stroke="#C0D0E0" stroke-width="1" opacity="1"></path><path fill="none" d="M 426.5 332 L 426.5 342" stroke="#C0D0E0" stroke-width="1" opacity="1"></path><path fill="none" d="M 501.5 332 L 501.5 342" stroke="#C0D0E0" stroke-width="1" opacity="1"></path><path fill="none" d="M 577.5 332 L 577.5 342" stroke="#C0D0E0" stroke-width="1" opacity="1"></path><path fill="none" d="M 652.5 332 L 652.5 342" stroke="#C0D0E0" stroke-width="1" opacity="1"></path><path fill="none" d="M 727.5 332 L 727.5 342" stroke="#C0D0E0" stroke-width="1" opacity="1"></path><path fill="none" d="M 802.5 332 L 802.5 342" stroke="#C0D0E0" stroke-width="1" opacity="1"></path><path fill="none" d="M 877.5 332 L 877.5 342" stroke="#C0D0E0" stroke-width="1" opacity="1"></path><path fill="none" d="M 953.5 332 L 953.5 342" stroke="#C0D0E0" stroke-width="1" opacity="1"></path><path fill="none" d="M 126.5 332 L 126.5 342" stroke="#C0D0E0" stroke-width="1" opacity="1"></path><path fill="none" d="M 127 332.5 L 953 332.5" stroke="#C0D0E0" stroke-width="1"  visibility="visible"></path></g><g class="highcharts-axis" ><path fill="none" d="M 201.5 133 L 201.5 123" stroke="#C0D0E0" stroke-width="1" opacity="1"></path><path fill="none" d="M 276.5 133 L 276.5 123" stroke="#C0D0E0" stroke-width="1" opacity="1"></path><path fill="none" d="M 351.5 133 L 351.5 123" stroke="#C0D0E0" stroke-width="1" opacity="1"></path><path fill="none" d="M 426.5 133 L 426.5 123" stroke="#C0D0E0" stroke-width="1" opacity="1"></path><path fill="none" d="M 501.5 133 L 501.5 123" stroke="#C0D0E0" stroke-width="1" opacity="1"></path><path fill="none" d="M 577.5 133 L 577.5 123" stroke="#C0D0E0" stroke-width="1" opacity="1"></path><path fill="none" d="M 652.5 133 L 652.5 123" stroke="#C0D0E0" stroke-width="1" opacity="1"></path><path fill="none" d="M 727.5 133 L 727.5 123" stroke="#C0D0E0" stroke-width="1" opacity="1"></path><path fill="none" d="M 802.5 133 L 802.5 123" stroke="#C0D0E0" stroke-width="1" opacity="1"></path><path fill="none" d="M 877.5 133 L 877.5 123" stroke="#C0D0E0" stroke-width="1" opacity="1"></path><path fill="none" d="M 953.5 133 L 953.5 123" stroke="#C0D0E0" stroke-width="1" opacity="1"></path><path fill="none" d="M 126.5 133 L 126.5 123" stroke="#C0D0E0" stroke-width="1" opacity="1"></path><path fill="none" d="M 127 132.5 L 953 132.5" stroke="#C0D0E0" stroke-width="1"  visibility="visible"></path></g><g class="highcharts-axis" ><text x="1012.984375"  text-anchor="middle" transform="translate(0,0) rotate(90 1012.984375 232.5)" class=" highcharts-yaxis-title" style="color:#000000;fill:#000000;" visibility="visible" y="232.5"><tspan>Nicholas Cage</tspan></text></g><g class="highcharts-axis" ><text x="26.859375"  text-anchor="middle" transform="translate(0,0) rotate(270 26.859375 232.5)" class=" highcharts-yaxis-title" style="color:#ba0f27;fill:#ba0f27;" visibility="visible" y="232.5"><tspan>Swimming pool drownings</tspan></text></g><g class="highcharts-series-group" ><g class="highcharts-series" visibility="visible"  transform="translate(127,133) scale(1 1)" clip-path="url(#highcharts-65)"><path fill="none" d="M 37.54545454545455 132.66666666666669 C 37.54545454545455 132.66666666666669 82.6 132.66666666666669 112.63636363636364 132.66666666666669 C 142.6727272727273 132.66666666666669 157.6909090909091 132.66666666666669 187.72727272727275 132.66666666666669 C 217.7636363636364 132.66666666666669 232.7818181818182 99.5 262.8181818181818 99.5 C 292.8545454545455 99.5 307.8727272727273 165.83333333333334 337.90909090909093 165.83333333333334 C 367.9454545454546 165.83333333333334 382.9636363636364 165.83333333333334 413.00000000000006 165.83333333333334 C 443.0363636363637 165.83333333333334 458.0545454545455 145.93333333333334 488.0909090909091 132.66666666666669 C 518.1272727272728 119.39999999999999 533.1454545454546 112.76666666666662 563.1818181818181 99.5 C 593.2181818181818 86.23333333333328 608.2363636363636 66.33333333333334 638.2727272727273 66.33333333333334 C 668.3090909090909 66.33333333333334 683.3272727272727 165.83333333333334 713.3636363636364 165.83333333333334 C 743.4 165.83333333333334 788.4545454545455 66.33333333333334 788.4545454545455 66.33333333333334" stroke="#000000" stroke-width="2"  stroke-linejoin="round" stroke-linecap="round"></path></g><g class="highcharts-markers" visibility="visible"  transform="translate(127,133) scale(1 1)" clip-path="none"><path fill="#000000" d="M 788 62.33333333333334 C 793.328 62.33333333333334 793.328 70.33333333333334 788 70.33333333333334 C 782.672 70.33333333333334 782.672 62.33333333333334 788 62.33333333333334 Z"></path><path fill="#000000" d="M 713 161.83333333333334 C 718.328 161.83333333333334 718.328 169.83333333333334 713 169.83333333333334 C 707.672 169.83333333333334 707.672 161.83333333333334 713 161.83333333333334 Z"></path><path fill="#000000" d="M 638 62.33333333333334 C 643.328 62.33333333333334 643.328 70.33333333333334 638 70.33333333333334 C 632.672 70.33333333333334 632.672 62.33333333333334 638 62.33333333333334 Z"></path><path fill="#000000" d="M 563 95.5 C 568.328 95.5 568.328 103.5 563 103.5 C 557.672 103.5 557.672 95.5 563 95.5 Z"></path><path fill="#000000" d="M 488 128.66666666666669 C 493.328 128.66666666666669 493.328 136.66666666666669 488 136.66666666666669 C 482.672 136.66666666666669 482.672 128.66666666666669 488 128.66666666666669 Z"></path><path fill="#000000" d="M 413 161.83333333333334 C 418.328 161.83333333333334 418.328 169.83333333333334 413 169.83333333333334 C 407.672 169.83333333333334 407.672 161.83333333333334 413 161.83333333333334 Z"></path><path fill="#000000" d="M 337 161.83333333333334 C 342.328 161.83333333333334 342.328 169.83333333333334 337 169.83333333333334 C 331.672 169.83333333333334 331.672 161.83333333333334 337 161.83333333333334 Z"></path><path fill="#000000" d="M 262 95.5 C 267.328 95.5 267.328 103.5 262 103.5 C 256.672 103.5 256.672 95.5 262 95.5 Z"></path><path fill="#000000" d="M 187 128.66666666666669 C 192.328 128.66666666666669 192.328 136.66666666666669 187 136.66666666666669 C 181.672 136.66666666666669 181.672 128.66666666666669 187 128.66666666666669 Z"></path><path fill="#000000" d="M 112 128.66666666666669 C 117.328 128.66666666666669 117.328 136.66666666666669 112 136.66666666666669 C 106.672 136.66666666666669 106.672 128.66666666666669 112 128.66666666666669 Z"></path><path fill="#000000" d="M 37 128.66666666666669 C 42.328 128.66666666666669 42.328 136.66666666666669 37 136.66666666666669 C 31.672 136.66666666666669 31.672 128.66666666666669 37 128.66666666666669 Z"></path></g><g class="highcharts-series" visibility="visible"  transform="translate(127,133) scale(1 1)" clip-path="url(#highcharts-65)"><path fill="none" d="M 37.54545454545455 102.81666666666666 C 37.54545454545455 102.81666666666666 82.6 126.03333333333333 112.63636363636364 126.03333333333333 C 142.6727272727273 126.03333333333333 157.6909090909091 126.03333333333333 187.72727272727275 126.03333333333333 C 217.7636363636364 126.03333333333333 232.7818181818182 128.02333333333334 262.8181818181818 139.3 C 292.8545454545455 150.57666666666668 307.8727272727273 182.41666666666666 337.90909090909093 182.41666666666666 C 367.9454545454546 182.41666666666666 382.9636363636364 152.56666666666666 413.00000000000006 149.25 C 443.0363636363637 145.93333333333334 458.0545454545455 147.92333333333332 488.0909090909091 145.93333333333334 C 518.1272727272728 143.94333333333336 533.1454545454546 145.93333333333334 563.1818181818181 139.3 C 593.2181818181818 132.66666666666669 608.2363636363636 56.383333333333326 638.2727272727273 56.383333333333326 C 668.3090909090909 56.383333333333326 683.3272727272727 152.56666666666666 713.3636363636364 152.56666666666666 C 743.4 152.56666666666666 788.4545454545455 126.03333333333333 788.4545454545455 126.03333333333333" stroke="#ba0f27" stroke-width="2"  stroke-linejoin="round" stroke-linecap="round"></path></g><g class="highcharts-markers" visibility="visible"  transform="translate(127,133) scale(1 1)" clip-path="none"><path fill="#ba0f27" d="M 788 122.03333333333333 L 792 126.03333333333333 788 130.03333333333333 784 126.03333333333333 Z"></path><path fill="#ba0f27" d="M 713 148.56666666666666 L 717 152.56666666666666 713 156.56666666666666 709 152.56666666666666 Z"></path><path fill="#ba0f27" d="M 638 52.383333333333326 L 642 56.383333333333326 638 60.383333333333326 634 56.383333333333326 Z"></path><path fill="#ba0f27" d="M 563 135.3 L 567 139.3 563 143.3 559 139.3 Z"></path><path fill="#ba0f27" d="M 488 141.93333333333334 L 492 145.93333333333334 488 149.93333333333334 484 145.93333333333334 Z"></path><path fill="#ba0f27" d="M 413 145.25 L 417 149.25 413 153.25 409 149.25 Z"></path><path fill="#ba0f27" d="M 337 178.41666666666666 L 341 182.41666666666666 337 186.41666666666666 333 182.41666666666666 Z"></path><path fill="#ba0f27" d="M 262 135.3 L 266 139.3 262 143.3 258 139.3 Z"></path><path fill="#ba0f27" d="M 187 122.03333333333333 L 191 126.03333333333333 187 130.03333333333333 183 126.03333333333333 Z"></path><path fill="#ba0f27" d="M 112 122.03333333333333 L 116 126.03333333333333 112 130.03333333333333 108 126.03333333333333 Z"></path><path fill="#ba0f27" d="M 37 98.81666666666666 L 41 102.81666666666666 37 106.81666666666666 33 102.81666666666666 Z"></path></g></g><text x="520" text-anchor="middle" class="highcharts-title"  style="color:#777;font-size:18px;fill:#777;width:976px;" y="24"><tspan style="fill:#ba0f27;font-size:24px;font-weight:bold;font-family: 'lora'">Number of people who drowned by falling into a pool</tspan><tspan style="font-family: 'lora'" x="520" dy="21"> correlates with </tspan><tspan style="fill:#000000;font-size:24px;font-weight:bold;font-family: 'lora'" x="520" dy="29">Films Nicolas Cage appeared in</tspan></text><g class="highcharts-legend"  transform="translate(360,367)"><g ><g><g class="highcharts-legend-item"  transform="translate(8,3)"><path fill="none" d="M 0 11 L 16 11" stroke="#000000" stroke-width="2"></path><path fill="#000000" d="M 8 7 C 13.328 7 13.328 15 8 15 C 2.6719999999999997 15 2.6719999999999997 7 8 7 Z"></path><text x="21" style="color:#333333;font-size:12px;font-weight:bold;cursor:pointer;fill:#333333;" text-anchor="start"  y="15"><tspan>Nicholas Cage</tspan></text></g><g class="highcharts-legend-item"  transform="translate(132.71875,3)"><path fill="none" d="M 0 11 L 16 11" stroke="#ba0f27" stroke-width="2"></path><path fill="#ba0f27" d="M 8 7 L 12 11 8 15 4 11 Z"></path><text x="21" y="15" style="color:#333333;font-size:12px;font-weight:bold;cursor:pointer;fill:#333333;" text-anchor="start" ><tspan>Swimming pool drownings</tspan></text></g></g></g></g><g class="highcharts-axis-labels highcharts-xaxis-labels" ><text x="164.54545454545456" style="color:#000000;cursor:default;font-size:11px;fill:#000000;width:75.0909090909091;text-overflow:ellipsis;" text-anchor="middle" transform="translate(0,0)" y="351" opacity="1"><tspan>1999</tspan></text><text x="239.63636363636363" style="color:#000000;cursor:default;font-size:11px;fill:#000000;width:75.0909090909091;text-overflow:ellipsis;" text-anchor="middle" transform="translate(0,0)" y="351" opacity="1"><tspan>2000</tspan></text><text x="314.72727272727275" style="color:#000000;cursor:default;font-size:11px;fill:#000000;width:75.0909090909091;text-overflow:ellipsis;" text-anchor="middle" transform="translate(0,0)" y="351" opacity="1"><tspan>2001</tspan></text><text x="389.8181818181818" style="color:#000000;cursor:default;font-size:11px;fill:#000000;width:75.0909090909091;text-overflow:ellipsis;" text-anchor="middle" transform="translate(0,0)" y="351" opacity="1"><tspan>2002</tspan></text><text x="464.90909090909093" style="color:#000000;cursor:default;font-size:11px;fill:#000000;width:75.0909090909091;text-overflow:ellipsis;" text-anchor="middle" transform="translate(0,0)" y="351" opacity="1"><tspan>2003</tspan></text><text x="540" style="color:#000000;cursor:default;font-size:11px;fill:#000000;width:75.0909090909091;text-overflow:ellipsis;" text-anchor="middle" transform="translate(0,0)" y="351" opacity="1"><tspan>2004</tspan></text><text x="615.0909090909091" style="color:#000000;cursor:default;font-size:11px;fill:#000000;width:75.0909090909091;text-overflow:ellipsis;" text-anchor="middle" transform="translate(0,0)" y="351" opacity="1"><tspan>2005</tspan></text><text x="690.1818181818182" style="color:#000000;cursor:default;font-size:11px;fill:#000000;width:75.0909090909091;text-overflow:ellipsis;" text-anchor="middle" transform="translate(0,0)" y="351" opacity="1"><tspan>2006</tspan></text><text x="765.2727272727273" style="color:#000000;cursor:default;font-size:11px;fill:#000000;width:75.0909090909091;text-overflow:ellipsis;" text-anchor="middle" transform="translate(0,0)" y="351" opacity="1"><tspan>2007</tspan></text><text x="840.3636363636364" style="color:#000000;cursor:default;font-size:11px;fill:#000000;width:75.0909090909091;text-overflow:ellipsis;" text-anchor="middle" transform="translate(0,0)" y="351" opacity="1"><tspan>2008</tspan></text><text x="915.4545454545455" style="color:#000000;cursor:default;font-size:11px;fill:#000000;width:75.0909090909091;text-overflow:ellipsis;" text-anchor="middle" transform="translate(0,0)" y="351" opacity="1"><tspan>2009</tspan></text></g><g class="highcharts-axis-labels highcharts-xaxis-labels" ><text x="164.54545454545456" style="color:#ba0f27;cursor:default;font-size:11px;fill:#ba0f27;width:75.0909090909091;text-overflow:ellipsis;" text-anchor="middle" transform="translate(0,0)" y="118" opacity="1"><tspan>1999</tspan></text><text x="239.63636363636363" style="color:#ba0f27;cursor:default;font-size:11px;fill:#ba0f27;width:75.0909090909091;text-overflow:ellipsis;" text-anchor="middle" transform="translate(0,0)" y="118" opacity="1"><tspan>2000</tspan></text><text x="314.72727272727275" style="color:#ba0f27;cursor:default;font-size:11px;fill:#ba0f27;width:75.0909090909091;text-overflow:ellipsis;" text-anchor="middle" transform="translate(0,0)" y="118" opacity="1"><tspan>2001</tspan></text><text x="389.8181818181818" style="color:#ba0f27;cursor:default;font-size:11px;fill:#ba0f27;width:75.0909090909091;text-overflow:ellipsis;" text-anchor="middle" transform="translate(0,0)" y="118" opacity="1"><tspan>2002</tspan></text><text x="464.90909090909093" style="color:#ba0f27;cursor:default;font-size:11px;fill:#ba0f27;width:75.0909090909091;text-overflow:ellipsis;" text-anchor="middle" transform="translate(0,0)" y="118" opacity="1"><tspan>2003</tspan></text><text x="540" style="color:#ba0f27;cursor:default;font-size:11px;fill:#ba0f27;width:75.0909090909091;text-overflow:ellipsis;" text-anchor="middle" transform="translate(0,0)" y="118" opacity="1"><tspan>2004</tspan></text><text x="615.0909090909091" style="color:#ba0f27;cursor:default;font-size:11px;fill:#ba0f27;width:75.0909090909091;text-overflow:ellipsis;" text-anchor="middle" transform="translate(0,0)" y="118" opacity="1"><tspan>2005</tspan></text><text x="690.1818181818182" style="color:#ba0f27;cursor:default;font-size:11px;fill:#ba0f27;width:75.0909090909091;text-overflow:ellipsis;" text-anchor="middle" transform="translate(0,0)" y="118" opacity="1"><tspan>2006</tspan></text><text x="765.2727272727273" style="color:#ba0f27;cursor:default;font-size:11px;fill:#ba0f27;width:75.0909090909091;text-overflow:ellipsis;" text-anchor="middle" transform="translate(0,0)" y="118" opacity="1"><tspan>2007</tspan></text><text x="840.3636363636364" style="color:#ba0f27;cursor:default;font-size:11px;fill:#ba0f27;width:75.0909090909091;text-overflow:ellipsis;" text-anchor="middle" transform="translate(0,0)" y="118" opacity="1"><tspan>2008</tspan></text><text x="915.4545454545455" style="color:#ba0f27;cursor:default;font-size:11px;fill:#ba0f27;width:75.0909090909091;text-overflow:ellipsis;" text-anchor="middle" transform="translate(0,0)" y="118" opacity="1"><tspan>2009</tspan></text></g><g class="highcharts-axis-labels highcharts-yaxis-labels" ><text x="968" style="color:#000000;cursor:default;font-size:11px;fill:#000000;width:333px;text-overflow:clip;" text-anchor="start" transform="translate(0,0)" y="336" opacity="1"><tspan>0 films</tspan></text><text x="968" style="color:#000000;cursor:default;font-size:11px;fill:#000000;width:333px;text-overflow:clip;" text-anchor="start" transform="translate(0,0)" y="269" opacity="1"><tspan>2 films</tspan></text><text x="968" style="color:#000000;cursor:default;font-size:11px;fill:#000000;width:333px;text-overflow:clip;" text-anchor="start" transform="translate(0,0)" y="203" opacity="1"><tspan>4 films</tspan></text><text x="968" style="color:#000000;cursor:default;font-size:11px;fill:#000000;width:333px;text-overflow:clip;" text-anchor="start" transform="translate(0,0)" y="137" opacity="1"><tspan>6 films</tspan></text></g><g class="highcharts-axis-labels highcharts-yaxis-labels" ><text x="112" style="color:#ba0f27;cursor:default;font-size:11px;fill:#ba0f27;width:333px;text-overflow:clip;" text-anchor="end" transform="translate(0,0)" y="336" opacity="1"><tspan>80 drownings</tspan></text><text x="112" style="color:#ba0f27;cursor:default;font-size:11px;fill:#ba0f27;width:333px;text-overflow:clip;" text-anchor="end" transform="translate(0,0)" y="269" opacity="1"><tspan>100 drownings</tspan></text><text x="112" style="color:#ba0f27;cursor:default;font-size:11px;fill:#ba0f27;width:333px;text-overflow:clip;" text-anchor="end" transform="translate(0,0)" y="203" opacity="1"><tspan>120 drownings</tspan></text><text x="112" style="color:#ba0f27;cursor:default;font-size:11px;fill:#ba0f27;width:333px;text-overflow:clip;" text-anchor="end" transform="translate(0,0)" y="137" opacity="1"><tspan>140 drownings</tspan></text></g><g class="highcharts-tooltip"  style="cursor:default;padding:0;white-space:nowrap;" transform="translate(0,-9999)"><path fill="none" d="M 3 0 L 13 0 C 16 0 16 0 16 3 L 16 13 C 16 16 16 16 13 16 L 3 16 C 0 16 0 16 0 13 L 0 3 C 0 0 0 0 3 0"  stroke="black" stroke-opacity="0.049999999999999996" stroke-width="5" transform="translate(1, 1)"></path><path fill="none" d="M 3 0 L 13 0 C 16 0 16 0 16 3 L 16 13 C 16 16 16 16 13 16 L 3 16 C 0 16 0 16 0 13 L 0 3 C 0 0 0 0 3 0"  stroke="black" stroke-opacity="0.09999999999999999" stroke-width="3" transform="translate(1, 1)"></path><path fill="none" d="M 3 0 L 13 0 C 16 0 16 0 16 3 L 16 13 C 16 16 16 16 13 16 L 3 16 C 0 16 0 16 0 13 L 0 3 C 0 0 0 0 3 0"  stroke="black" stroke-opacity="0.15" stroke-width="1" transform="translate(1, 1)"></path><path fill="rgb(249, 249, 249)" fill-opacity=" .85" d="M 3 0 L 13 0 C 16 0 16 0 16 3 L 16 13 C 16 16 16 16 13 16 L 3 16 C 0 16 0 16 0 13 L 0 3 C 0 0 0 0 3 0"></path><text x="8"  style="font-size:12px;color:#333333;fill:#333333;" transform="translate(0,20)"></text></g><text x="1030" text-anchor="end"  style="cursor:pointer;color:#909090;font-size:9px;fill:#909090;" y="405">tylervigen.com</text></svg>